{"asset":{"version":"2.0","generator":"VECTARY"},"nodes":[{"translation":[0.8609883066831746,-3.1263880373444406e-16,0.4028902472966117],"scale":[0.0020843344147886793,0.0020843344147886793,0.0020843344147886793],"rotation":[-0.6078987963724036,0.4718069882972292,-0.4266198158546412,0.4752396783550729],"name":"paper","children":[1]},{"translation":[-1252.1000791074025,-1941.0222706464137,-13.525409081162671],"scale":[1,1,1],"rotation":[0,0,0,1],"name":"Wave","children":[2,3]},{"translation":[0,0,20.116382935227648],"scale":[1,1,1],"rotation":[0.7071067811865475,0,0,0.7071067811865476],"name":"Part 1","mesh":0},{"translation":[0,0,20.116382935227648],"scale":[1,1,1],"rotation":[0.7071067811865475,0,0,0.7071067811865476],"name":"Part 2","mesh":1}],"materials":[{"pbrMetallicRoughness":{"baseColorFactor":[0.7372047873606051,0.7372047873606051,0.7372047873606051,1],"metallicFactor":0.2,"roughnessFactor":1},"name":"Architectural","emissiveFactor":[0.28,0.28,0.28],"extensions":{"KHR_materials_transmission":{"transmissionFactor":1},"KHR_materials_ior":{"ior":1},"KHR_materials_volume":{"thicknessFactor":0.01,"attenuationDistance":0.01,"attenuationColor":[1,1,1]}},"alphaMode":"OPAQUE","doubleSided":false}],"meshes":[{"primitives":[{"mode":4,"attributes":{"POSITION":1,"NORMAL":2,"TEXCOORD_0":3},"material":0,"indices":0}]},{"primitives":[{"mode":4,"attributes":{"POSITION":5,"NORMAL":6,"TEXCOORD_0":7},"material":0,"indices":4}]}],"accessors":[{"bufferView":0,"byteOffset":0,"componentType":5125,"count":345588,"type":"SCALAR"},{"bufferView":1,"byteOffset":0,"componentType":5126,"count":65570,"max":[190.86300659179688,25.87820816040039,197.1219940185547],"min":[-188.2220001220703,-6.590973854064941,-193.3800048828125],"type":"VEC3"},{"bufferView":2,"byteOffset":0,"componentType":5126,"count":65570,"type":"VEC3"},{"bufferView":3,"byteOffset":0,"componentType":5126,"count":65570,"type":"VEC2"},{"bufferView":4,"byteOffset":0,"componentType":5125,"count":172800,"type":"SCALAR"},{"bufferView":5,"byteOffset":0,"componentType":5126,"count":36375,"max":[190.86300659179688,26.23196792602539,193.28399658203125],"min":[-188.2220001220703,-3.6655969619750977,-191.70901489257812],"type":"VEC3"},{"bufferView":6,"byteOffset":0,"componentType":5126,"count":36375,"type":"VEC3"},{"bufferView":7,"byteOffset":0,"componentType":5126,"count":36375,"type":"VEC2"}],"bufferViews":[{"buffer":0,"byteOffset":0,"byteLength":1382352,"target":34963},{"buffer":0,"byteOffset":1382352,"byteLength":786840,"target":34962},{"buffer":0,"byteOffset":2169192,"byteLength":786840,"target":34962},{"buffer":0,"byteOffset":2956032,"byteLength":524560,"target":34962},{"buffer":0,"byteOffset":3480592,"byteLength":691200,"target":34963},{"buffer":0,"byteOffset":4171792,"byteLength":436500,"target":34962},{"buffer":0,"byteOffset":4608292,"byteLength":436500,"target":34962},{"buffer":0,"byteOffset":5044792,"byteLength":291000,"target":34962}],"scene":0,"scenes":[{"nodes":[0],"name":"paper"}],"extensionsUsed":["KHR_texture_transform","KHR_materials_ior","KHR_materials_volume","KHR_materials_transmission"],"buffers":[{"byteLength":5335792,"uri":"paper.bin"}]}